# xmcd
#
# Track frame offsets: 
#        150
#        22070
#        42835
#        63080
#        82357
#        105352
#        121547
#        139707
#        159067
#        180530
#        203932
#
# Disc length: 2745 seconds
#
# Revision: 3
# Processed by: cddbd v1.5.2PL0 Copyright (c) Steve Scherf et al.
# Submitted via: ExactAudioCopy v1.5
#
DISCID=850ab70b
DTITLE=David Jacobs-Strain - Ocean or a Teardrop
DYEAR=2004
DGENRE=Blues
TTITLE0=Kokomo Blues
TTITLE1=Ocean Or A Teardrop
TTITLE2=The Girl I Love
TTITLE3=Sleepless Dream
TTITLE4=Take My Chances
TTITLE5=Soul Of A Man
TTITLE6=Yelapa Breakdown
TTITLE7=Shoot The Devil
TTITLE8=Earthquake
TTITLE9=Illinois
TTITLE10=Untitled
EXTD=
EXTT0=
EXTT1=
EXTT2=
EXTT3=
EXTT4=
EXTT5=
EXTT6=
EXTT7=
EXTT8=
EXTT9=
EXTT10=
PLAYORDER=
